<svg width="248" height="72" fill="none" xmlns="http://www.w3.org/2000/svg"><path d="M247.307 64.35a7.105 7.105 0 0 1-7.111 7.111H7.732a7.105 7.105 0 0 1-7.11-7.11V7.762c0-3.917 3.193-7.11 7.11-7.11h232.464c3.917 0 7.111 3.193 7.111 7.11V64.35Z" fill="#fff"/><path d="M247.307 64.35a7.105 7.105 0 0 1-7.111 7.111H7.732a7.105 7.105 0 0 1-7.11-7.11V7.762c0-3.917 3.193-7.11 7.11-7.11h232.464c3.917 0 7.111 3.193 7.111 7.11V64.35Z" fill="#000"/><path d="M54.205 35.626c-.057-5.61 4.59-8.36 4.817-8.473-2.635-3.825-6.716-4.364-8.16-4.392-3.43-.368-6.745 2.04-8.502 2.04-1.785 0-4.477-2.012-7.367-1.955-3.74.057-7.226 2.21-9.125 5.582-3.939 6.83-.992 16.889 2.777 22.415 1.899 2.72 4.109 5.724 7 5.61 2.833-.113 3.881-1.813 7.31-1.813 3.372 0 4.392 1.813 7.34 1.728 3.032-.056 4.958-2.72 6.772-5.44 2.182-3.089 3.06-6.15 3.089-6.32-.057-.028-5.894-2.266-5.951-8.982Zm-5.573-16.513c1.53-1.899 2.578-4.506 2.267-7.113-2.21.085-4.96 1.53-6.546 3.4-1.417 1.644-2.664 4.336-2.324 6.858 2.494.17 5.016-1.275 6.603-3.145Zm45.53 36.029h-3.067l-1.665-5.259h-5.85l-1.6 5.26H79l5.763-17.924h3.571l5.828 17.923Zm-5.258-7.472-1.512-4.689c-.153-.482-.46-1.6-.898-3.374h-.044c-.175.767-.46 1.884-.855 3.374l-1.49 4.69h4.799Zm20.073.854c0 2.191-.592 3.944-1.797 5.215-1.074 1.14-2.41 1.709-3.988 1.709-1.709 0-2.936-.614-3.68-1.84V60.4H96.64V46.486c0-1.38-.044-2.804-.11-4.25h2.52l.153 2.06h.044c.964-1.535 2.41-2.323 4.361-2.323 1.533 0 2.804.591 3.812 1.818 1.03 1.184 1.556 2.761 1.556 4.733Zm-2.936.11c0-1.25-.285-2.301-.855-3.112-.613-.854-1.446-1.27-2.498-1.27-.701 0-1.358.24-1.928.7a3.384 3.384 0 0 0-1.14 1.841c-.087.35-.13.636-.13.877v2.147c0 .942.284 1.73.854 2.388.569.657 1.336.964 2.257.964 1.073 0 1.928-.416 2.519-1.249.614-.832.921-1.928.921-3.286Zm17.787-.11c0 2.191-.591 3.944-1.796 5.215-1.074 1.14-2.411 1.709-3.988 1.709-1.709 0-2.936-.614-3.681-1.84V60.4h-2.871V46.486c0-1.38-.043-2.804-.109-4.25h2.52l.153 2.06h.044c.964-1.535 2.41-2.323 4.36-2.323 1.534 0 2.805.591 3.813 1.818 1.051 1.184 1.555 2.761 1.555 4.733Zm-2.914.11c0-1.25-.285-2.301-.854-3.112-.614-.854-1.447-1.27-2.498-1.27-.701 0-1.359.24-1.928.7-.57.483-.943 1.096-1.14 1.841-.087.35-.131.636-.131.877v2.147c0 .942.285 1.73.854 2.388.57.636 1.337.964 2.257.964 1.074 0 1.928-.416 2.52-1.249.613-.832.92-1.928.92-3.286Zm19.549 1.491c0 1.534-.526 2.76-1.6 3.725-1.161 1.051-2.804 1.577-4.886 1.577-1.928 0-3.484-.372-4.645-1.117l.657-2.389c1.249.745 2.652 1.118 4.142 1.118 1.073 0 1.928-.241 2.519-.723.592-.482.899-1.14.899-1.95 0-.723-.241-1.337-.745-1.84-.504-.505-1.315-.965-2.476-1.381-3.134-1.161-4.711-2.892-4.711-5.127 0-1.468.548-2.674 1.665-3.616C132.4 37.46 133.868 37 135.686 37c1.622 0 3.002.285 4.076.855l-.723 2.344c-1.008-.548-2.17-.833-3.44-.833-1.008 0-1.819.241-2.367.745a2.116 2.116 0 0 0-.723 1.622c0 .701.285 1.293.833 1.753.482.416 1.336.876 2.607 1.38 1.534.614 2.673 1.337 3.396 2.17.767.81 1.118 1.84 1.118 3.089Zm9.53-5.745h-3.177v6.267c0 1.6.548 2.388 1.666 2.388.504 0 .942-.044 1.27-.132l.088 2.191c-.57.22-1.315.33-2.235.33-1.139 0-2.016-.351-2.651-1.03-.636-.702-.964-1.863-.964-3.484v-6.53h-1.885v-2.147h1.885v-2.367l2.826-.854v3.22h3.177v2.148Zm14.265 4.21c0 1.994-.569 3.615-1.709 4.886-1.183 1.315-2.76 1.972-4.732 1.972-1.907 0-3.419-.635-4.536-1.884-1.118-1.25-1.687-2.849-1.687-4.755 0-1.994.591-3.637 1.753-4.93 1.161-1.27 2.739-1.906 4.689-1.906 1.906 0 3.418.635 4.579 1.884 1.074 1.205 1.643 2.783 1.643 4.733Zm-2.98.066c0-1.184-.262-2.192-.766-3.046-.592-1.03-1.468-1.534-2.586-1.534-1.161 0-2.038.504-2.629 1.534-.504.854-.767 1.884-.767 3.111 0 1.184.263 2.213.767 3.046.613 1.03 1.49 1.534 2.607 1.534 1.096 0 1.95-.526 2.586-1.556.504-.898.788-1.906.788-3.09Zm12.31-3.902a5.954 5.954 0 0 0-.898-.088c-1.008 0-1.797.373-2.345 1.14-.482.679-.723 1.533-.723 2.563v6.793h-2.87V46.31c0-1.49-.022-2.849-.088-4.076h2.498l.109 2.476h.088c.307-.855.789-1.534 1.446-2.06.636-.46 1.337-.7 2.082-.7.263 0 .504.021.723.043l-.022 2.76Zm12.843 3.312c0 .504-.044.942-.11 1.292h-8.611c.022 1.271.46 2.257 1.249 2.937.723.591 1.665.898 2.827.898 1.27 0 2.432-.197 3.483-.614l.461 1.994c-1.228.526-2.674.79-4.339.79-1.994 0-3.571-.593-4.733-1.776-1.139-1.183-1.709-2.76-1.709-4.754 0-1.95.526-3.572 1.6-4.865 1.117-1.38 2.629-2.081 4.513-2.081 1.863 0 3.265.7 4.229 2.081.767 1.14 1.14 2.498 1.14 4.098Zm-2.739-.745c.022-.855-.176-1.578-.548-2.213-.504-.811-1.271-1.205-2.279-1.205-.942 0-1.709.394-2.279 1.16-.482.614-.766 1.36-.854 2.236l5.96.022ZM88.746 29.092h-1.972l-1.086-3.373h-3.744l-1.029 3.373H79l3.687-11.49h2.287l3.772 11.49Zm-3.344-4.774-.971-3c-.115-.315-.286-1.03-.572-2.173h-.029c-.114.486-.285 1.2-.543 2.172l-.943 3.001h3.058Zm12.608-3.513-3.145 8.288h-1.8l-3.03-8.288h1.972l1.43 4.373c.228.743.428 1.429.6 2.086h.057c.143-.6.343-1.286.6-2.086l1.4-4.373h1.916Zm6.683 8.29-.143-.944h-.057c-.572.772-1.372 1.144-2.43 1.144-1.486 0-2.544-1.03-2.544-2.43 0-2.058 1.773-3.115 4.831-3.115v-.143c0-1.086-.572-1.63-1.715-1.63-.829 0-1.543.2-2.172.63l-.372-1.201c.772-.486 1.715-.715 2.858-.715 2.173 0 3.259 1.144 3.259 3.43v3.059c0 .828.028 1.486.114 1.972l-1.629-.057Zm-.257-4.116c-2.058 0-3.059.486-3.059 1.658 0 .857.543 1.286 1.258 1.286.943 0 1.801-.715 1.801-1.687V24.98Zm5.892-5.548c-.6 0-1.086-.486-1.086-1.114 0-.63.486-1.087 1.115-1.087s1.143.458 1.115 1.087c.028.686-.458 1.114-1.144 1.114Zm.944 9.661h-1.83v-8.289h1.83v8.29Zm5.12-.002h-1.83V17h1.83v12.09Zm7.824.005-.143-.944h-.057c-.571.772-1.372 1.144-2.429 1.144-1.486 0-2.544-1.03-2.544-2.43 0-2.058 1.772-3.115 4.83-3.115v-.143c0-1.086-.571-1.63-1.715-1.63-.828 0-1.543.2-2.172.63l-.371-1.201c.771-.486 1.715-.715 2.858-.715 2.172 0 3.258 1.144 3.258 3.43v3.059c0 .828.029 1.486.115 1.972h-1.63v-.057Zm-.257-4.116c-2.058 0-3.058.486-3.058 1.658 0 .857.543 1.286 1.257 1.286.944 0 1.801-.715 1.801-1.687V24.98Zm9.259 4.311c-1.172 0-2.058-.487-2.601-1.459h-.028l-.115 1.287h-1.572c.058-.658.058-1.43.058-2.23v-9.86h1.857v5.001h.029c.543-.914 1.429-1.372 2.629-1.372 2.001 0 3.402 1.715 3.402 4.202 0 2.544-1.544 4.43-3.659 4.43Zm-.371-7.204c-1.058 0-2.03.915-2.03 2.201v1.458c0 1.143.858 2.086 2.001 2.086 1.372 0 2.201-1.114 2.201-2.915 0-1.686-.858-2.83-2.172-2.83Zm8.611 7.004h-1.829V17h1.829v12.09Zm10.026-3.684h-5.517c.029 1.572 1.087 2.458 2.601 2.458a6.08 6.08 0 0 0 2.23-.4l.286 1.286c-.772.343-1.715.515-2.773.515-2.601 0-4.116-1.63-4.116-4.173 0-2.544 1.572-4.46 3.916-4.46 2.115 0 3.459 1.573 3.459 3.945-.029.314-.029.6-.086.829Zm-1.687-1.315c0-1.286-.657-2.172-1.829-2.172-1.057 0-1.886.915-2.001 2.172h3.83Zm12.865 5.197c-2.43 0-4.002-1.8-4.002-4.259 0-2.572 1.601-4.373 4.145-4.373 2.372 0 4.001 1.715 4.001 4.259-.029 2.572-1.686 4.373-4.144 4.373Zm.057-7.317c-1.344 0-2.172 1.258-2.172 2.973 0 1.715.857 2.944 2.172 2.944 1.315 0 2.172-1.344 2.172-2.973-.029-1.658-.886-2.944-2.172-2.944Zm13.942 7.122h-1.829V24.32c0-1.458-.572-2.2-1.658-2.2-1.086 0-1.858.942-1.858 2.028v4.945h-1.829v-5.916c0-.744-.029-1.515-.057-2.373h1.629l.086 1.287h.057c.486-.887 1.515-1.458 2.629-1.458 1.744 0 2.887 1.343 2.887 3.487l-.057 4.973Zm12.067-6.893h-2.029v4.03c0 1.03.343 1.544 1.086 1.544.315 0 .6-.028.829-.086l.057 1.4c-.371.144-.829.201-1.429.201-1.458 0-2.315-.8-2.315-2.887V22.23h-1.2V20.8h1.2v-1.515l1.801-.543V20.8h2.029v1.4h-.029Zm9.748 6.89h-1.858v-4.716c0-1.486-.571-2.23-1.657-2.23-.944 0-1.83.658-1.83 1.973v4.973h-1.858V17h1.858v4.973h.029c.572-.914 1.429-1.343 2.487-1.343 1.743 0 2.829 1.372 2.829 3.544v4.916Zm9.427-3.684h-5.545c.029 1.572 1.086 2.458 2.601 2.458a6.07 6.07 0 0 0 2.229-.4l.286 1.286c-.771.343-1.715.515-2.772.515-2.601 0-4.116-1.63-4.116-4.173 0-2.544 1.572-4.46 3.916-4.46 2.115 0 3.458 1.573 3.458 3.945 0 .314-.028.6-.057.829Zm-1.686-1.315c0-1.286-.658-2.172-1.83-2.172-1.057 0-1.886.915-2 2.172h3.83Z" fill="#fff"/></svg>