<svg width="227" height="65" fill="none" xmlns="http://www.w3.org/2000/svg"><path d="M226.449 58.472A6.522 6.522 0 0 1 219.921 65H6.528A6.522 6.522 0 0 1 0 58.472V6.528C0 2.932 2.932 0 6.528 0H219.92c3.596 0 6.528 2.932 6.528 6.528v51.944Z" fill="#fff"/><path d="M226.449 58.472A6.522 6.522 0 0 1 219.921 65H6.528A6.522 6.522 0 0 1 0 58.472V6.528C0 2.932 2.932 0 6.528 0H219.92c3.596 0 6.528 2.932 6.528 6.528v51.944Z" fill="url(#a)"/><path d="M52.148 31.792c-.044-4.428 3.613-6.597 3.792-6.686-2.074-3.02-5.286-3.444-6.423-3.466-2.7-.291-5.309 1.61-6.691 1.61-1.405 0-3.524-1.588-5.8-1.543-2.943.044-5.686 1.744-7.18 4.405-3.1 5.39-.781 13.328 2.185 17.688 1.494 2.147 3.234 4.517 5.509 4.428 2.23-.09 3.055-1.431 5.754-1.431 2.654 0 3.457 1.43 5.777 1.364 2.386-.045 3.903-2.147 5.33-4.294 1.717-2.437 2.409-4.852 2.43-4.986-.044-.023-4.638-1.79-4.683-7.09Zm-4.562-13.359c1.251-1.358 2.108-3.222 1.853-5.085-1.807.06-4.054 1.094-5.352 2.43-1.159 1.176-2.178 3.1-1.9 4.904 2.039.121 4.101-.912 5.399-2.25ZM85.81 47.619h-2.92l-1.585-5.007h-5.57l-1.523 5.007h-2.837l5.486-17.064h3.4l5.55 17.064Zm-5.006-7.114-1.44-4.464c-.145-.459-.437-1.523-.855-3.212h-.041c-.167.73-.438 1.794-.814 3.212l-1.418 4.464h4.568Zm19.116.815c0 2.086-.564 3.754-1.711 4.964-1.023 1.085-2.295 1.627-3.797 1.627-1.627 0-2.795-.584-3.505-1.752v6.467h-2.732V39.38c0-1.314-.042-2.67-.105-4.047h2.4l.145 1.961h.042c.918-1.46 2.295-2.211 4.151-2.211 1.46 0 2.67.563 3.63 1.731.98 1.127 1.481 2.629 1.481 4.506Zm-2.796.104c0-1.19-.271-2.19-.814-2.962-.584-.814-1.376-1.21-2.378-1.21-.667 0-1.293.229-1.835.667a3.224 3.224 0 0 0-1.085 1.752 3.518 3.518 0 0 0-.126.835v2.044c0 .897.272 1.648.814 2.274.543.626 1.273.918 2.149.918 1.022 0 1.835-.396 2.399-1.19.584-.792.876-1.835.876-3.128Zm16.924-.104c0 2.086-.563 3.754-1.71 4.964-1.023 1.085-2.295 1.627-3.797 1.627-1.627 0-2.795-.584-3.505-1.752v6.467h-2.732V39.38c0-1.314-.042-2.67-.105-4.047h2.399l.146 1.961h.042c.918-1.46 2.295-2.211 4.151-2.211 1.461 0 2.67.563 3.63 1.731 1.001 1.127 1.481 2.629 1.481 4.506Zm-2.774.104c0-1.19-.271-2.19-.814-2.962-.584-.814-1.377-1.21-2.378-1.21-.668 0-1.293.229-1.836.667-.542.46-.897 1.043-1.085 1.752a3.537 3.537 0 0 0-.125.835v2.044c0 .897.271 1.648.814 2.274.542.605 1.272.918 2.149.918 1.022 0 1.835-.396 2.399-1.19.584-.792.876-1.835.876-3.128Zm18.62 1.419c0 1.46-.5 2.629-1.523 3.547-1.105 1.001-2.67 1.502-4.652 1.502-1.835 0-3.316-.355-4.422-1.064l.626-2.274c1.189.71 2.524 1.064 3.942 1.064 1.023 0 1.836-.23 2.399-.689.564-.459.856-1.084.856-1.856 0-.689-.23-1.273-.71-1.752-.479-.48-1.251-.918-2.357-1.315-2.983-1.105-4.485-2.753-4.485-4.881 0-1.398.522-2.545 1.585-3.442 1.064-.897 2.462-1.335 4.194-1.335 1.543 0 2.857.27 3.88.813l-.689 2.232c-.959-.521-2.065-.792-3.275-.792-.96 0-1.731.23-2.253.709a2.014 2.014 0 0 0-.688 1.544c0 .667.271 1.23.792 1.669.459.396 1.273.834 2.483 1.314 1.46.584 2.545 1.272 3.233 2.065.73.772 1.064 1.752 1.064 2.941Zm9.069-5.466h-3.025v5.966c0 1.523.522 2.274 1.586 2.274.479 0 .897-.042 1.21-.126l.083 2.087c-.542.208-1.252.313-2.128.313-1.085 0-1.919-.334-2.524-.981-.605-.668-.918-1.773-.918-3.317v-6.216h-1.794v-2.045h1.794V33.08l2.691-.813v3.066h3.025v2.045Zm13.579 4.005c0 1.898-.542 3.442-1.627 4.652-1.127 1.252-2.629 1.877-4.506 1.877-1.815 0-3.254-.605-4.318-1.794-1.064-1.189-1.607-2.711-1.607-4.526 0-1.899.564-3.463 1.669-4.694 1.106-1.21 2.608-1.815 4.464-1.815 1.815 0 3.255.605 4.36 1.794 1.023 1.147 1.565 2.65 1.565 4.506Zm-2.837.063c0-1.127-.25-2.087-.73-2.9-.563-.98-1.398-1.46-2.462-1.46-1.105 0-1.94.48-2.503 1.46-.48.813-.73 1.794-.73 2.962 0 1.127.25 2.107.73 2.9.584.98 1.418 1.46 2.482 1.46 1.043 0 1.857-.5 2.462-1.481.48-.855.751-1.815.751-2.941Zm11.723-3.712a5.657 5.657 0 0 0-.855-.084c-.96 0-1.711.355-2.232 1.085-.459.647-.689 1.46-.689 2.44v6.468h-2.733v-8.428c0-1.419-.02-2.712-.083-3.88h2.378l.104 2.357h.084c.292-.814.751-1.46 1.377-1.96.605-.439 1.272-.669 1.981-.669.251 0 .48.021.689.042l-.021 2.629Zm12.23 3.146c0 .48-.042.897-.105 1.23h-8.198c.021 1.21.438 2.15 1.189 2.796.689.563 1.586.855 2.691.855 1.21 0 2.316-.187 3.317-.584l.438 1.899c-1.168.5-2.545.75-4.13.75-1.899 0-3.401-.563-4.506-1.69-1.085-1.126-1.627-2.628-1.627-4.526 0-1.857.5-3.4 1.522-4.631 1.064-1.314 2.504-1.982 4.298-1.982 1.773 0 3.108.668 4.026 1.982.73 1.085 1.085 2.378 1.085 3.9Zm-2.608-.71c.021-.813-.167-1.501-.521-2.106-.48-.772-1.21-1.148-2.17-1.148-.897 0-1.627.376-2.17 1.106-.458.584-.73 1.293-.813 2.128l5.674.02ZM79.836 23.841h-1.712l-.943-2.927h-3.25l-.894 2.927h-1.662l3.2-9.974h1.986l3.275 9.974Zm-2.903-4.143-.844-2.605c-.099-.273-.248-.893-.496-1.886h-.025c-.1.422-.248 1.042-.471 1.886l-.819 2.605h2.655Zm10.947-3.05-2.73 7.196h-1.563l-2.63-7.196h1.712l1.24 3.797c.2.645.373 1.24.522 1.81h.05c.123-.52.297-1.116.52-1.81l1.216-3.797h1.662Zm5.798 7.197-.124-.818h-.05c-.496.67-1.19.992-2.108.992-1.29 0-2.209-.893-2.209-2.109 0-1.786 1.539-2.704 4.194-2.704v-.124c0-.943-.497-1.415-1.489-1.415-.72 0-1.34.174-1.886.546l-.322-1.042c.67-.422 1.488-.62 2.48-.62 1.887 0 2.83.992 2.83 2.977v2.655c0 .72.024 1.29.099 1.712l-1.415-.05Zm-.223-3.572c-1.786 0-2.655.421-2.655 1.439 0 .744.472 1.116 1.092 1.116.819 0 1.563-.62 1.563-1.464v-1.091Zm5.117-4.812a.948.948 0 0 1-.943-.967c0-.546.422-.943.968-.943.545 0 .992.397.967.943.025.595-.397.967-.992.967Zm.819 8.387h-1.588v-7.196h1.588v7.196Zm4.439-.005h-1.588V13.348h1.588v10.495Zm6.798.002-.124-.818h-.05c-.496.67-1.191.992-2.109.992-1.29 0-2.208-.893-2.208-2.109 0-1.786 1.538-2.704 4.193-2.704v-.124c0-.943-.496-1.415-1.489-1.415-.719 0-1.34.174-1.885.546l-.323-1.042c.67-.422 1.489-.62 2.481-.62 1.886 0 2.829.992 2.829 2.977v2.655c0 .72.024 1.29.099 1.712h-1.414v-.05Zm-.224-3.572c-1.786 0-2.655.421-2.655 1.439 0 .744.472 1.116 1.092 1.116.819 0 1.563-.62 1.563-1.464v-1.091Zm8.034 3.738c-1.017 0-1.786-.421-2.258-1.265h-.025l-.099 1.117h-1.365c.05-.571.05-1.241.05-1.936v-8.56h1.613v4.342h.025c.471-.794 1.24-1.19 2.282-1.19 1.737 0 2.953 1.488 2.953 3.647 0 2.208-1.34 3.845-3.176 3.845Zm-.323-6.252c-.918 0-1.761.794-1.761 1.91v1.266c0 .992.744 1.811 1.737 1.811 1.191 0 1.91-.968 1.91-2.53 0-1.465-.744-2.457-1.886-2.457Zm7.485 6.084h-1.588V13.348h1.588v10.495Zm8.7-3.199h-4.789c.025 1.364.943 2.133 2.258 2.133.719 0 1.364-.124 1.935-.347l.248 1.117c-.67.297-1.488.446-2.406.446-2.258 0-3.573-1.414-3.573-3.622 0-2.209 1.364-3.871 3.399-3.871 1.836 0 3.002 1.365 3.002 3.424-.025.273-.025.521-.074.72Zm-1.464-1.142c0-1.116-.571-1.886-1.588-1.886-.918 0-1.638.794-1.737 1.886h3.325Zm11.165 4.511c-2.109 0-3.474-1.564-3.474-3.697 0-2.233 1.39-3.796 3.598-3.796 2.059 0 3.474 1.488 3.474 3.697-.025 2.233-1.464 3.796-3.598 3.796Zm.05-6.352c-1.167 0-1.886 1.092-1.886 2.58 0 1.489.744 2.556 1.886 2.556 1.141 0 1.885-1.166 1.885-2.58-.025-1.44-.769-2.556-1.885-2.556Zm12.101 6.183h-1.588v-4.143c0-1.266-.496-1.91-1.439-1.91-.943 0-1.612.818-1.612 1.76v4.293h-1.588v-5.136c0-.645-.025-1.315-.05-2.06h1.414l.075 1.117h.049c.422-.769 1.315-1.265 2.283-1.265 1.514 0 2.506 1.166 2.506 3.027l-.05 4.317Zm10.479-5.978h-1.762v3.498c0 .893.298 1.34.943 1.34.273 0 .521-.025.72-.075l.049 1.216c-.322.124-.719.174-1.24.174-1.265 0-2.01-.695-2.01-2.506V17.89h-1.042v-1.24h1.042v-1.315l1.563-.472v1.787h1.762v1.216h-.025Zm8.461 5.977h-1.612v-4.094c0-1.29-.497-1.935-1.439-1.935-.819 0-1.588.57-1.588 1.712v4.317h-1.613V13.348h1.613v4.317h.024c.497-.794 1.241-1.166 2.159-1.166 1.514 0 2.456 1.19 2.456 3.076v4.268Zm8.189-3.199h-4.813c.025 1.364.943 2.133 2.258 2.133.719 0 1.365-.124 1.935-.347l.248 1.117c-.67.297-1.488.446-2.406.446-2.258 0-3.573-1.414-3.573-3.622 0-2.209 1.364-3.871 3.399-3.871 1.836 0 3.002 1.365 3.002 3.424 0 .273-.025.521-.05.72Zm-1.463-1.142c0-1.116-.571-1.886-1.588-1.886-.918 0-1.638.794-1.737 1.886h3.325Z" fill="#252525"/><defs><linearGradient id="a" x1="0" y1="3.5" x2="226" y2="65" gradientUnits="userSpaceOnUse"><stop stop-color="#DEDEDE"/><stop offset=".521" stop-color="#fff"/><stop offset=".973" stop-color="#DEDEDE"/></linearGradient></defs></svg>