<svg width="44" height="24" viewBox="0 0 44 24" fill="none" xmlns="http://www.w3.org/2000/svg">
<path d="M4.33517 1.3974C10.2894 7.30072 16.1757 13.2549 22.1117 19.197C22.1225 19.2078 22.1354 19.2164 22.1495 19.2223C22.1636 19.2281 22.1788 19.2312 22.1941 19.2312C22.2094 19.2312 22.2245 19.2281 22.2387 19.2223C22.2528 19.2164 22.2656 19.2078 22.2764 19.197C28.1479 13.3247 34.029 7.44361 39.9198 1.55361C40.3105 1.16288 40.6326 0.919482 40.8861 0.823414C42.4882 0.215524 44.0818 1.8842 43.331 3.44752C43.2244 3.66952 42.9621 3.98961 42.5439 4.40779C36.4206 10.5319 30.2969 16.6556 24.1728 22.7789C23.3057 23.6472 22.63 24.2538 21.4784 23.7804C21.2193 23.6738 20.9173 23.4482 20.5726 23.1035C14.2943 16.8235 8.0144 10.544 1.73287 4.2649C1.39138 3.92261 1.16494 3.62108 1.05353 3.36033C0.382671 1.77521 1.95326 0.220367 3.54685 0.831891C3.785 0.923922 4.04778 1.11242 4.33517 1.3974Z" fill="url(#paint0_linear_725_167)"/>
<defs>
<linearGradient id="paint0_linear_725_167" x1="4.4153" y1="0.695319" x2="40.2817" y2="2.69732" gradientUnits="userSpaceOnUse">
<stop stop-color="#0898ED"/>
<stop offset="1" stop-color="#A919D1"/>
</linearGradient>
</defs>
</svg>
