<svg width="76" height="76" fill="none" xmlns="http://www.w3.org/2000/svg"><g clip-path="url(#a)" fill-opacity=".5"><path d="M37.714 0h.556c5.693.21 10.455 2.292 14.284 6.248 8.38 8.655 7.188 22.681-2.398 30.014a.072.072 0 0 0-.027.067.07.07 0 0 0 .046.056 38.618 38.618 0 0 1 4.144 1.657c3.727 1.742 1.444 6.898-2.174 5.493-.744-.29-1.651-.717-2.205-.93-11.226-4.333-23.905-2.246-33.064 5.554-5.592 4.76-9.199 10.786-10.82 18.075-.341 1.537.395 3.05 1.836 3.594.414.156 1.173.234 2.276.234 11.56 0 23.12 0 34.68.002.789 0 1.355.06 1.7.181 3.106 1.085 2.37 5.414-.875 5.755H8.786C3.735 75.567.496 72.4 0 67.306v-.555c.05-.714.127-1.301.232-1.764C3.27 51.555 12.73 40.762 25.815 36.403a.072.072 0 0 0 .046-.094.076.076 0 0 0-.023-.032c-.773-.64-1.577-1.3-2.248-1.998C11.293 21.467 19.957.482 37.714 0ZM52.23 20.188a14.23 14.23 0 1 0-28.461 0 14.23 14.23 0 0 0 28.46 0Z" fill="url(#b)"/><path d="M76.001 61.795v.221c-.176 1.358-.825 2.239-1.947 2.643-.392.141-1.007.21-1.847.209a2924.16 2924.16 0 0 0-7.255 0 .08.08 0 0 0-.058.024.084.084 0 0 0-.024.06c-.003 2.388-.003 4.779 0 7.172.002.886-.069 1.53-.212 1.93-.405 1.13-1.29 1.778-2.656 1.945h-.222c-1.357-.174-2.236-.82-2.638-1.94-.144-.4-.215-1.046-.214-1.937.004-2.393.005-4.783.002-7.17a.083.083 0 0 0-.083-.084c-2.276-.003-4.561-.003-6.855 0-1.147 0-1.928-.077-2.344-.233-2.48-.932-2.424-4.658.162-5.53.34-.114.916-.172 1.726-.173 2.44-.004 4.877-.005 7.31-.002a.084.084 0 0 0 .084-.084c.003-2.214.003-4.436 0-6.668-.001-1.263.072-2.097.218-2.503.905-2.507 4.653-2.47 5.543.127.115.337.174.893.175 1.666.004 2.463.004 4.92.001 7.375a.085.085 0 0 0 .085.084c2.357.004 4.723.004 7.098-.001.935-.002 1.606.07 2.011.215 1.124.402 1.77 1.287 1.94 2.654Z" fill="url(#c)"/></g><defs><linearGradient id="b" x1="11.506" y1="10.647" x2="67.463" y2="46.909" gradientUnits="userSpaceOnUse"><stop stop-color="#2F64B8" stop-opacity=".98"/><stop offset="1" stop-color="#9B5BD4"/></linearGradient><linearGradient id="c" x1="53.402" y1="51.771" x2="75.818" y2="70.753" gradientUnits="userSpaceOnUse"><stop stop-color="#2F64B8" stop-opacity=".98"/><stop offset="1" stop-color="#9B5BD4"/></linearGradient><clipPath id="a"><path fill="#fff" d="M0 0h76v76H0z"/></clipPath></defs></svg>