<svg width="93" height="92" fill="none" xmlns="http://www.w3.org/2000/svg"><g filter="url(#a)"><path d="M45.896 4h1.227c22.684.505 40.895 18.488 41.377 41.355v1.227C87.962 69.522 69.925 87.502 46.982 88H45.96C23.105 87.524 5.035 69.476 4.5 46.643v-1.265C4.977 22.583 23.114 4.482 45.896 4ZM81.97 46a35.47 35.47 0 1 0-70.94 0 35.47 35.47 0 0 0 70.94 0Z" fill="#D7D7D7" fill-opacity=".1"/></g><g filter="url(#b)"><path d="M56.96 58.054c-4.105-2.984-8.192-5.985-12.31-8.945-1.206-.867-1.464-1.871-1.464-3.39-.002-6.248-.003-12.495-.002-18.742 0-3.377 5.13-4.33 6.385-1.079.147.382.222.981.223 1.797.003 5.663.003 11.327 0 16.991 0 .025.006.05.018.073a.177.177 0 0 0 .05.059c3.629 2.658 7.262 5.307 10.9 7.946.899.653 1.481 1.166 1.747 1.538 1.738 2.437-.775 5.688-3.678 4.816-.46-.139-1.083-.493-1.87-1.064Z" fill="#D7D7D7" fill-opacity=".1"/></g><defs><filter id="a" x=".5" y="0" width="92" height="92" filterUnits="userSpaceOnUse" color-interpolation-filters="sRGB"><feFlood flood-opacity="0" result="BackgroundImageFix"/><feBlend in="SourceGraphic" in2="BackgroundImageFix" result="shape"/><feGaussianBlur stdDeviation="2" result="effect1_foregroundBlur_725_381"/></filter><filter id="b" x="39.184" y="19.895" width="27.895" height="43.367" filterUnits="userSpaceOnUse" color-interpolation-filters="sRGB"><feFlood flood-opacity="0" result="BackgroundImageFix"/><feBlend in="SourceGraphic" in2="BackgroundImageFix" result="shape"/><feGaussianBlur stdDeviation="2" result="effect1_foregroundBlur_725_381"/></filter></defs></svg>