<svg width="85" height="84" fill="none" xmlns="http://www.w3.org/2000/svg"><path d="M41.896 0h1.227C65.807.505 84.018 18.488 84.5 41.355v1.227C83.962 65.522 65.925 83.502 42.982 84H41.96C19.105 83.524 1.035 65.476.5 42.643v-1.265C.977 18.583 19.114.482 41.896 0ZM77.97 42a35.47 35.47 0 1 0-70.94 0 35.47 35.47 0 0 0 70.94 0Z" fill="url(#a)" fill-opacity=".5"/><path d="M52.96 54.054c-4.105-2.984-8.192-5.985-12.31-8.945-1.206-.867-1.464-1.871-1.464-3.39-.002-6.248-.003-12.495-.002-18.742 0-3.377 5.13-4.33 6.385-1.079.147.382.222.981.223 1.797.003 5.663.003 11.327 0 16.991 0 .025.006.05.018.073a.177.177 0 0 0 .05.059c3.629 2.658 7.262 5.307 10.9 7.946.899.653 1.481 1.166 1.747 1.538 1.738 2.437-.775 5.688-3.678 4.816-.46-.139-1.083-.493-1.87-1.064Z" fill="url(#b)" fill-opacity=".5"/><defs><linearGradient id="a" x1="17.118" y1="11.767" x2="83.95" y2="68.364" gradientUnits="userSpaceOnUse"><stop stop-color="#2F64B8" stop-opacity=".98"/><stop offset="1" stop-color="#9B5BD4"/></linearGradient><linearGradient id="b" x1="43.12" y1="24.849" x2="65.273" y2="35.402" gradientUnits="userSpaceOnUse"><stop stop-color="#2F64B8" stop-opacity=".98"/><stop offset="1" stop-color="#9B5BD4"/></linearGradient></defs></svg>