<svg width="66" height="66" fill="none" xmlns="http://www.w3.org/2000/svg"><g clip-path="url(#a)"><path d="M65.668 37.664v.442c-.21 7.385-5.667 13.253-12.984 13.948-.526.05-1.371.075-2.535.074h-6.691a.1.1 0 0 1-.102-.1v-3.896c0-.019.007-.036.02-.049a.066.066 0 0 1 .047-.02c2.322.005 4.645.005 6.97 0 1.17-.003 2.014-.042 2.534-.117 5.921-.857 9.849-6.74 8.34-12.584-.92-3.57-3.685-6.282-7.222-7.261-1.443-.4-2.565-.285-2.954-2.116-1.617-7.622-8.11-13.656-16.01-14.382-10.04-.923-18.66 5.978-20.004 15.958-.254 1.884.376 4.088-2.392 4.252-2.576.152-4.627 1.192-6.153 3.118-3.857 4.866-.997 11.949 5.031 13 .537.094 1.38.14 2.531.137 2.969-.007 5.94-.006 8.917.001a.065.065 0 0 1 .064.065v3.895a.098.098 0 0 1-.098.098c-2.997.003-5.998.003-9.003-.002-1.164 0-2.009-.032-2.535-.095C5.219 51.29.757 46.135.668 39.868v-.409c.344-5.8 4.362-10.443 10.089-11.514a.158.158 0 0 0 .13-.141c1.101-12.418 11.78-21.611 24.317-20.507 8.48.746 16.208 6.645 18.97 14.714.103.301.313.977.63 2.026.012.041.04.068.08.08a20.16 20.16 0 0 1 1.577.498c5.52 2.105 8.982 7.147 9.207 13.05Z" fill="url(#b)"/><path d="m31.092 38.824-4.52 4.52a.077.077 0 0 1-.085.017.08.08 0 0 1-.025-.017l-2.772-2.77a.066.066 0 0 1 0-.092c2.52-2.523 5.04-5.041 7.556-7.556.524-.523.937-.846 1.24-.969 1.052-.422 1.782.086 2.564.869l7.676 7.674c.006.007.01.017.01.027 0 .01-.004.018-.01.025l-2.8 2.8a.045.045 0 0 1-.032.014.048.048 0 0 1-.032-.013l-4.564-4.565a.023.023 0 0 0-.036.002.023.023 0 0 0-.004.013l.004 19.323c0 .026-.01.05-.028.068a.098.098 0 0 1-.069.028h-3.904a.097.097 0 0 1-.097-.097l.009-19.268a.045.045 0 0 0-.03-.043.048.048 0 0 0-.027-.002.05.05 0 0 0-.024.012Z" fill="url(#c)"/></g><defs><linearGradient id="b" x1="-10.716" y1="11.814" x2="77.036" y2="28.096" gradientUnits="userSpaceOnUse"><stop stop-color="#fff"/><stop offset="1" stop-color="#B1AEAE"/></linearGradient><linearGradient id="c" x1="23.525" y1="38.783" x2="41.438" y2="48.552" gradientUnits="userSpaceOnUse"><stop stop-color="#fff"/><stop offset="0" stop-color="#AAA6A6"/><stop offset=".974" stop-color="#fff"/></linearGradient><clipPath id="a"><path fill="#fff" transform="translate(.668 .203)" d="M0 0h65v65H0z"/></clipPath></defs></svg>