<svg width="66" height="66" fill="none" xmlns="http://www.w3.org/2000/svg"><g clip-path="url(#a)"><path d="M50.558.426h10.95c.928.153 1.039.798 1.039 1.667v57.779c0 1.018-.714 1.22-1.62 1.225-3.346.02-6.69.02-10.035 0-1.144-.005-1.357-.588-1.357-1.637V2.04c0-.861.11-1.454 1.023-1.614Zm9.801 2.22a.062.062 0 0 0-.062-.062h-8.541a.062.062 0 0 0-.063.062V58.86a.062.062 0 0 0 .063.062h8.541a.063.063 0 0 0 .062-.063V2.646Z" fill="url(#b)"/><path d="M32.208 59.947a1.159 1.159 0 0 1-1.16 1.159H20.355a1.16 1.16 0 0 1-1.159-1.16v-45.35a1.159 1.159 0 0 1 1.16-1.159H31.05a1.159 1.159 0 0 1 1.159 1.16v45.35ZM21.483 15.584c-.098-.111-.133.197-.128.233.02.126.03.193.03.2l-.001 42.879c0 .007.003.014.008.018a.027.027 0 0 0 .019.008l8.544-.002a.096.096 0 0 0 .088-.058.094.094 0 0 0 .007-.036V15.662a.064.064 0 0 0-.064-.064h-8.47a.043.043 0 0 1-.033-.014Z" fill="url(#c)"/><path d="M47.376 59.923a1.18 1.18 0 0 1-1.18 1.181H35.543a1.18 1.18 0 0 1-1.18-1.18V27.598a1.18 1.18 0 0 1 1.18-1.181h10.651a1.18 1.18 0 0 1 1.181 1.18v32.325Zm-10.844-31.02a.148.148 0 0 0-.01.054v29.916c0 .006 0 .012.003.018a.045.045 0 0 0 .024.024.045.045 0 0 0 .017.003l8.568.001a.084.084 0 0 0 .084-.084c.004-.332-.03-.685-.03-.99-.006-9.733-.004-19.463.007-29.19a.052.052 0 0 0-.052-.052c-2.883.008-5.696.007-8.44-.003-.147 0-.242.043-.173.214a.12.12 0 0 1 .002.088Z" fill="url(#d)"/><path d="M17.036 59.943a1.16 1.16 0 0 1-1.16 1.16H5.184a1.16 1.16 0 0 1-1.16-1.16V40.59a1.16 1.16 0 0 1 1.16-1.16h10.692a1.16 1.16 0 0 1 1.16 1.16v19.353ZM6.211 58.87a.047.047 0 0 0 .047.047l8.572.002a.047.047 0 0 0 .047-.047V41.636a.047.047 0 0 0-.047-.047H6.26a.047.047 0 0 0-.048.047l-.001 17.235Z" fill="url(#e)"/><path d="M65.785 63.276v2.15h-65v-2.153l65 .003Z" fill="url(#f)"/></g><defs><linearGradient id="b" x1="47.256" y1="6.65" x2="65.415" y2="7.149" gradientUnits="userSpaceOnUse"><stop stop-color="#fff"/><stop offset="1" stop-color="#B1AEAE"/></linearGradient><linearGradient id="c" x1="16.916" y1="18.326" x2="35.066" y2="18.962" gradientUnits="userSpaceOnUse"><stop stop-color="#fff"/><stop offset="1" stop-color="#B1AEAE"/></linearGradient><linearGradient id="d" x1="32.084" y1="29.975" x2="50.215" y2="30.848" gradientUnits="userSpaceOnUse"><stop stop-color="#fff"/><stop offset="1" stop-color="#B1AEAE"/></linearGradient><linearGradient id="e" x1="1.744" y1="41.653" x2="19.81" y2="43.043" gradientUnits="userSpaceOnUse"><stop stop-color="#fff"/><stop offset="1" stop-color="#B1AEAE"/></linearGradient><linearGradient id="f" x1="-10.599" y1="63.494" x2="-4.92" y2="85.477" gradientUnits="userSpaceOnUse"><stop stop-color="#fff"/><stop offset="1" stop-color="#B1AEAE"/></linearGradient><clipPath id="a"><path fill="#fff" transform="translate(.785 .426)" d="M0 0h65v65H0z"/></clipPath></defs></svg>