<svg width="66" height="66" fill="none" xmlns="http://www.w3.org/2000/svg"><g clip-path="url(#a)"><path d="M.148 30.473v-.915c.19-9.842 4.671-18.995 12.324-25.026 1.635-1.29 3.853.775 2.736 2.53-.11.172-.336.402-.678.688a32.92 32.92 0 0 0-1.851 1.653 28.74 28.74 0 0 0 .273 41.48c.45.43 1.086.988 1.906 1.676.977.818.798 2.416-.277 3.052-.972.572-1.737.204-2.579-.49C4.585 49 .344 40.111.148 30.471Z" fill="url(#b)"/><path d="M65.147 29.54v.822c-.147 9.566-4.32 18.423-11.63 24.567-.536.45-.902.72-1.098.807-1.968.88-3.621-1.84-1.863-3.28 6.18-5.066 10.19-12.317 10.701-20.347.603-9.452-3.125-18.245-10.415-24.294-.393-.325-.657-.61-.794-.853-.848-1.503.624-3.3 2.264-2.699.239.087.549.288.93.602 7.466 6.159 11.7 15.013 11.905 24.675Z" fill="url(#c)"/><path d="M19.442 42.996c.662.687 1.887 1.467 2.262 2.295.468 1.037-.19 2.284-1.255 2.57-.843.228-1.427-.116-2.108-.695-10.775-9.14-10.735-25.644.339-34.586 1.983-1.6 4.402 1.106 2.445 2.901-.66.606-1.387 1.219-1.956 1.835-6.825 7.36-6.688 18.461.273 25.68Z" fill="url(#d)"/><path d="M45.753 47.879c-1.447.333-2.675-1.075-2.194-2.456.295-.845 1.271-1.424 1.903-2.041 7.14-6.981 7.658-18.07 1.07-25.617-.722-.824-1.55-1.545-2.438-2.345-1.023-.92-.785-2.58.464-3.152.928-.425 1.617-.056 2.39.59 10.786 8.998 10.614 25.272.05 34.27-.496.424-.911.674-1.245.75Z" fill="url(#e)"/><path d="M34.622 39.347a.092.092 0 0 0-.07.09V60.57c0 1.522-1.626 2.5-2.952 1.635-.781-.509-.857-1.207-.857-2.168V39.455a.12.12 0 0 0-.095-.118c-6.473-1.445-9.565-8.776-6.026-14.404 2.09-3.324 6.105-5 9.98-4.2 6.472 1.333 9.608 8.802 6.072 14.387-1.391 2.199-3.408 3.608-6.052 4.227Zm3.715-9.31a5.69 5.69 0 1 0-11.38 0 5.69 5.69 0 0 0 11.38 0Z" fill="url(#f)"/></g><defs><linearGradient id="b" x1="-2.542" y1="9.438" x2="18.88" y2="10.253" gradientUnits="userSpaceOnUse"><stop stop-color="#fff"/><stop offset="1" stop-color="#B1AEAE"/></linearGradient><linearGradient id="c" x1="47.113" y1="9.453" x2="68.513" y2="10.267" gradientUnits="userSpaceOnUse"><stop stop-color="#fff"/><stop offset="1" stop-color="#B1AEAE"/></linearGradient><linearGradient id="d" x1="8.295" y1="15.769" x2="24.384" y2="16.434" gradientUnits="userSpaceOnUse"><stop stop-color="#fff"/><stop offset="1" stop-color="#B1AEAE"/></linearGradient><linearGradient id="e" x1="41.434" y1="15.762" x2="57.504" y2="16.425" gradientUnits="userSpaceOnUse"><stop stop-color="#fff"/><stop offset="1" stop-color="#B1AEAE"/></linearGradient><linearGradient id="f" x1="19.807" y1="24.842" x2="46.268" y2="26.378" gradientUnits="userSpaceOnUse"><stop stop-color="#fff"/><stop offset="1" stop-color="#B1AEAE"/></linearGradient><clipPath id="a"><path fill="#fff" transform="translate(.148 .84)" d="M0 0h65v65H0z"/></clipPath></defs></svg>