<svg width="66" height="66" fill="none" xmlns="http://www.w3.org/2000/svg"><g clip-path="url(#a)"><path d="M50.531.371h10.95c.928.154 1.038.799 1.038 1.667.002 19.26.002 38.52 0 57.779 0 1.018-.713 1.22-1.618 1.225-3.347.02-6.692.02-10.036.001-1.144-.006-1.357-.589-1.357-1.637V1.986c0-.862.11-1.455 1.023-1.615Zm9.8 2.22a.062.062 0 0 0-.061-.062h-8.542a.062.062 0 0 0-.062.063v56.212a.063.063 0 0 0 .062.062h8.542a.062.062 0 0 0 .062-.062V2.592Z" fill="url(#b)"/><path d="M32.177 59.892a1.16 1.16 0 0 1-1.16 1.16H20.324a1.16 1.16 0 0 1-1.159-1.16v-45.35a1.159 1.159 0 0 1 1.16-1.16h10.694a1.159 1.159 0 0 1 1.159 1.16v45.35ZM21.452 15.53c-.098-.112-.134.196-.129.232.02.126.031.193.031.2l-.001 42.879a.027.027 0 0 0 .026.027l8.544-.003a.097.097 0 0 0 .068-.028.094.094 0 0 0 .028-.066V15.607a.064.064 0 0 0-.064-.063h-8.47a.042.042 0 0 1-.033-.014Z" fill="url(#c)"/><path d="M47.349 59.869a1.18 1.18 0 0 1-1.181 1.18H35.517a1.181 1.181 0 0 1-1.181-1.18V27.544a1.18 1.18 0 0 1 1.18-1.18h10.652a1.18 1.18 0 0 1 1.18 1.18v32.325ZM36.504 28.848a.145.145 0 0 0-.01.054V58.82a.045.045 0 0 0 .013.031.044.044 0 0 0 .032.013l8.568.002a.084.084 0 0 0 .083-.084c.004-.333-.029-.686-.029-.99-.007-9.733-.004-19.464.007-29.19a.052.052 0 0 0-.053-.053 1247.4 1247.4 0 0 1-8.44-.002c-.147 0-.242.043-.172.213a.12.12 0 0 1 .001.089Z" fill="url(#d)"/><path d="M17.009 59.888a1.16 1.16 0 0 1-1.16 1.16H5.155a1.16 1.16 0 0 1-1.16-1.16V40.535a1.16 1.16 0 0 1 1.16-1.16h10.692a1.16 1.16 0 0 1 1.16 1.16v19.353ZM6.184 58.817a.047.047 0 0 0 .046.047h8.572a.047.047 0 0 0 .047-.047V41.582a.047.047 0 0 0-.047-.047h-8.57a.047.047 0 0 0-.047.047l-.001 17.236Z" fill="url(#e)"/><path d="M65.758 63.221v2.15h-65V63.22l65 .002Z" fill="url(#f)"/></g><defs><linearGradient id="b" x1="52.082" y1="8.872" x2="69.293" y2="11.998" gradientUnits="userSpaceOnUse"><stop stop-color="#2F64B8" stop-opacity=".98"/><stop offset="1" stop-color="#9B5BD4"/></linearGradient><linearGradient id="c" x1="21.738" y1="20.061" x2="38.614" y2="23.962" gradientUnits="userSpaceOnUse"><stop stop-color="#2F64B8" stop-opacity=".98"/><stop offset="1" stop-color="#9B5BD4"/></linearGradient><linearGradient id="d" x1="36.91" y1="31.222" x2="53.058" y2="36.353" gradientUnits="userSpaceOnUse"><stop stop-color="#2F64B8" stop-opacity=".98"/><stop offset="1" stop-color="#9B5BD4"/></linearGradient><linearGradient id="e" x1="6.57" y1="42.411" x2="20.697" y2="49.593" gradientUnits="userSpaceOnUse"><stop stop-color="#2F64B8" stop-opacity=".98"/><stop offset="1" stop-color="#9B5BD4"/></linearGradient><linearGradient id="f" x1="13.617" y1="63.52" x2="13.753" y2="66.989" gradientUnits="userSpaceOnUse"><stop stop-color="#2F64B8" stop-opacity=".98"/><stop offset="1" stop-color="#9B5BD4"/></linearGradient><clipPath id="a"><path fill="#fff" transform="translate(.758 .371)" d="M0 0h65v65H0z"/></clipPath></defs></svg>