<svg width="66" height="66" fill="none" xmlns="http://www.w3.org/2000/svg"><g clip-path="url(#a)"><path d="M65.64 37.664v.442c-.209 7.385-5.667 13.253-12.983 13.948-.526.05-1.371.075-2.535.074H43.43a.102.102 0 0 1-.072-.03.1.1 0 0 1-.03-.07v-3.896a.07.07 0 0 1 .02-.049.067.067 0 0 1 .048-.02c2.321.005 4.645.005 6.97 0 1.17-.003 2.014-.042 2.534-.117 5.92-.857 9.849-6.74 8.34-12.584-.921-3.57-3.685-6.282-7.222-7.261-1.443-.4-2.566-.285-2.954-2.116-1.617-7.622-8.11-13.656-16.01-14.382-10.04-.923-18.66 5.978-20.004 15.958-.254 1.884.376 4.088-2.392 4.252-2.576.152-4.627 1.192-6.153 3.118-3.857 4.866-.997 11.949 5.03 13 .537.094 1.381.14 2.532.137 2.968-.007 5.94-.006 8.916.001a.065.065 0 0 1 .065.065v3.895a.097.097 0 0 1-.098.098c-2.997.003-5.998.003-9.003-.002-1.164 0-2.01-.032-2.536-.095C5.191 51.29.73 46.135.641 39.868v-.409c.344-5.8 4.362-10.443 10.089-11.514a.158.158 0 0 0 .13-.141c1.1-12.418 11.78-21.611 24.316-20.507 8.48.746 16.208 6.645 18.97 14.714.102.301.312.977.629 2.026.013.041.04.068.081.08.715.203 1.241.369 1.577.498 5.52 2.105 8.982 7.147 9.207 13.05Z" fill="url(#b)"/><path d="m31.064 38.824-4.52 4.52a.077.077 0 0 1-.084.017.081.081 0 0 1-.026-.017l-2.771-2.77a.066.066 0 0 1 0-.092c2.52-2.523 5.04-5.041 7.556-7.556.523-.523.937-.846 1.24-.969 1.052-.422 1.782.086 2.564.869l7.675 7.674c.007.007.01.017.01.027 0 .01-.003.018-.01.025l-2.8 2.8a.045.045 0 0 1-.031.014.047.047 0 0 1-.033-.013l-4.564-4.565a.023.023 0 0 0-.025-.006.023.023 0 0 0-.014.02l.004 19.324a.097.097 0 0 1-.096.095h-3.906a.096.096 0 0 1-.096-.096l.008-19.268a.046.046 0 0 0-.028-.043.048.048 0 0 0-.053.01Z" fill="url(#c)"/></g><defs><linearGradient id="b" x1="13.5" y1="13.5" x2="49" y2="57" gradientUnits="userSpaceOnUse"><stop stop-color="#2F64B8" stop-opacity=".98"/><stop offset="1" stop-color="#9B5BD4"/></linearGradient><linearGradient id="c" x1="33" y1="20.5" x2="49.808" y2="47.56" gradientUnits="userSpaceOnUse"><stop stop-color="#2F64B8" stop-opacity=".98"/><stop offset="0" stop-color="#2F64B8" stop-opacity=".98"/><stop offset=".974" stop-color="#9B5BD4"/></linearGradient><clipPath id="a"><path fill="#fff" transform="translate(.64 .203)" d="M0 0h65v65H0z"/></clipPath></defs></svg>