<svg width="66" height="66" viewBox="0 0 66 66" fill="none" xmlns="http://www.w3.org/2000/svg">
<g clip-path="url(#clip0_725_346)">
<path d="M65.668 37.6642V38.106C65.4585 45.4908 60.0008 51.3586 52.6845 52.0543C52.158 52.1042 51.313 52.1288 50.1492 52.1279C47.9081 52.1279 45.6775 52.1279 43.4575 52.1279C43.4306 52.1279 43.4048 52.1174 43.3857 52.0986C43.3667 52.0798 43.356 52.0542 43.356 52.0277V48.1315C43.356 48.1133 43.363 48.0958 43.3757 48.083C43.3883 48.0701 43.4054 48.0629 43.4232 48.0629C45.7448 48.068 48.068 48.068 50.393 48.0629C51.5626 48.0604 52.4073 48.0214 52.927 47.9461C58.848 47.0892 62.776 41.2062 61.2678 35.3625C60.3461 31.7926 57.5823 29.0796 54.0454 28.1008C52.602 27.7009 51.4797 27.8164 51.0912 25.9845C49.4738 18.3635 42.9814 12.3294 35.0812 11.6032C25.0417 10.6803 16.4216 17.5815 15.0771 27.5613C14.8232 29.4452 15.4529 31.6491 12.6854 31.8129C10.109 31.9653 8.05791 33.0046 6.53193 34.9309C2.6751 39.797 5.53535 46.8797 11.5631 47.9309C12.0997 48.0248 12.9435 48.0705 14.0945 48.068C17.0627 48.0612 20.0347 48.0616 23.0105 48.0693C23.0276 48.0693 23.0441 48.0761 23.0562 48.0882C23.0684 48.1004 23.0752 48.1168 23.0752 48.134V52.0289C23.0752 52.0548 23.0649 52.0797 23.0466 52.098C23.0282 52.1164 23.0034 52.1267 22.9774 52.1267C19.9805 52.1301 16.9793 52.1296 13.9739 52.1254C12.8102 52.1246 11.9651 52.0928 11.4387 52.0302C5.21924 51.2901 0.756836 46.1345 0.667969 39.8681V39.4593C1.01201 33.6588 5.03008 29.0161 10.7569 27.9446C10.7909 27.9385 10.8219 27.9213 10.8453 27.8959C10.8687 27.8705 10.8831 27.8381 10.8864 27.8037C11.9884 15.3864 22.6664 6.1925 35.2043 7.29699C43.6848 8.04348 51.4124 13.9417 54.1736 22.0109C54.2769 22.3122 54.4868 22.9876 54.8033 24.037C54.816 24.0785 54.8431 24.1052 54.8846 24.117C55.5997 24.3201 56.1253 24.486 56.4613 24.6147C61.9813 26.7196 65.4433 31.7621 65.668 37.6642Z" fill="url(#paint0_linear_725_346)"/>
<path d="M31.0916 38.8244L26.5721 43.3439C26.565 43.3512 26.5564 43.3569 26.547 43.3609C26.5376 43.3648 26.5275 43.3668 26.5172 43.3668C26.507 43.3668 26.4968 43.3648 26.4873 43.3609C26.4777 43.3569 26.469 43.3512 26.4616 43.3439L23.6903 40.5738C23.6785 40.5615 23.6719 40.5452 23.6719 40.5281C23.6719 40.5111 23.6785 40.4947 23.6903 40.4824C26.2107 37.9594 28.7294 35.4407 31.2465 32.9262C31.7695 32.4031 32.183 32.0802 32.4868 31.9575C33.538 31.5348 34.268 32.0426 35.05 32.8259C37.5916 35.3683 40.1501 37.9264 42.7256 40.5002C42.7323 40.5074 42.7361 40.5169 42.7361 40.5266C42.7361 40.5363 42.7323 40.5455 42.7256 40.5522L39.9263 43.3528C39.9179 43.3613 39.9064 43.366 39.8943 43.366C39.8822 43.366 39.8704 43.3613 39.8615 43.3528L35.2976 38.7876C35.2945 38.7843 35.2904 38.7821 35.286 38.7811C35.2816 38.7801 35.277 38.7804 35.2728 38.7821C35.2686 38.7837 35.265 38.7865 35.2624 38.7902C35.2598 38.7939 35.2583 38.7983 35.2582 38.8028L35.262 58.1264C35.262 58.1516 35.2519 58.1758 35.2338 58.1937C35.2157 58.2115 35.1911 58.2216 35.1655 58.2216H31.2605C31.2349 58.2216 31.2103 58.2114 31.1922 58.1933C31.1741 58.1752 31.164 58.1507 31.164 58.1251L31.1729 38.8574C31.173 38.8481 31.1703 38.8391 31.1651 38.8314C31.16 38.8237 31.1526 38.8178 31.1439 38.8143C31.1352 38.8107 31.1257 38.8098 31.1164 38.8116C31.1071 38.8134 31.0985 38.8179 31.0916 38.8244Z" fill="url(#paint1_linear_725_346)"/>
</g>
<defs>
<linearGradient id="paint0_linear_725_346" x1="-10.7163" y1="11.8143" x2="77.0363" y2="28.0956" gradientUnits="userSpaceOnUse">
<stop stop-color="white"/>
<stop offset="1" stop-color="#B1AEAE"/>
</linearGradient>
<linearGradient id="paint1_linear_725_346" x1="23.5252" y1="38.7827" x2="41.4384" y2="48.5522" gradientUnits="userSpaceOnUse">
<stop stop-color="white"/>
<stop offset="0.0001" stop-color="#AAA6A6"/>
<stop offset="0.973958" stop-color="white"/>
</linearGradient>
<clipPath id="clip0_725_346">
<rect width="65" height="65" fill="white" transform="translate(0.667969 0.203125)"/>
</clipPath>
</defs>
</svg>
