<svg width="1456" height="700" viewBox="0 0 1456 700" fill="none" xmlns="http://www.w3.org/2000/svg">
<g filter="url(#filter0_f_725_370)">
<path fill-rule="evenodd" clip-rule="evenodd" d="M1227.48 1314.29C1150.14 1382.28 1062.73 1454.6 950.638 1439.32C840.162 1424.26 744.481 1324.33 656.061 1236.39C578.866 1159.61 522.498 1068.77 478.847 970.094C433.969 868.65 389.649 762.441 402.419 663.037C415.608 560.373 464.702 465.155 549.175 422.662C629.301 382.356 736.921 447.99 832.117 446.884C941.747 445.61 1036.47 369.45 1146.45 415.723C1270.01 467.709 1397.27 573.333 1444.28 704.438C1490.89 834.46 1419.04 949.253 1378.57 1063.1C1343.99 1160.38 1300.97 1249.68 1227.48 1314.29Z" fill="url(#paint0_radial_725_370)" fill-opacity="0.2"/>
</g>
<defs>
<filter id="filter0_f_725_370" x="0.191406" y="0.824219" width="1859.27" height="1840.56" filterUnits="userSpaceOnUse" color-interpolation-filters="sRGB">
<feFlood flood-opacity="0" result="BackgroundImageFix"/>
<feBlend mode="normal" in="SourceGraphic" in2="BackgroundImageFix" result="shape"/>
<feGaussianBlur stdDeviation="200" result="effect1_foregroundBlur_725_370"/>
</filter>
<radialGradient id="paint0_radial_725_370" cx="0" cy="0" r="1" gradientUnits="userSpaceOnUse" gradientTransform="translate(1265.59 470.695) rotate(-175.205) scale(999.425 785.575)">
<stop stop-color="#ED028F"/>
<stop offset="0.167392" stop-color="#C410B7"/>
<stop offset="1" stop-color="#0898ED"/>
</radialGradient>
</defs>
</svg>
