<svg width="2629" height="2566" viewBox="0 0 2629 2566" fill="none" xmlns="http://www.w3.org/2000/svg">
<g filter="url(#filter0_f_725_121)">
<path fill-rule="evenodd" clip-rule="evenodd" d="M512.232 1484.32C436.039 1319.9 357.177 1136.44 428.852 957.956C499.495 782.037 699.682 675.331 877.625 574.406C1032.98 486.294 1202.07 440.232 1378.32 419.443C1559.52 398.069 1748.12 380.125 1901.76 453.605C2060.45 529.495 2192.1 661.218 2224.49 824.108C2255.21 978.616 2104.86 1123.21 2066.52 1282.2C2022.37 1465.29 2104.3 1662.93 1983.93 1821.62C1848.7 1999.91 1626.1 2156.16 1396.54 2165.5C1168.89 2174.76 1015.51 1994.88 850.426 1867.71C709.365 1759.06 584.628 1640.55 512.232 1484.32Z" fill="url(#paint0_linear_725_121)" fill-opacity="0.4"/>
</g>
<defs>
<filter id="filter0_f_725_121" x="0.683594" y="0.6875" width="2627.91" height="2565.16" filterUnits="userSpaceOnUse" color-interpolation-filters="sRGB">
<feFlood flood-opacity="0" result="BackgroundImageFix"/>
<feBlend mode="normal" in="SourceGraphic" in2="BackgroundImageFix" result="shape"/>
<feGaussianBlur stdDeviation="200" result="effect1_foregroundBlur_725_121"/>
</filter>
<linearGradient id="paint0_linear_725_121" x1="552.449" y1="1605.51" x2="1760.2" y2="748.696" gradientUnits="userSpaceOnUse">
<stop stop-color="#ED028F"/>
<stop offset="0.407054" stop-color="#C410B7"/>
<stop offset="1" stop-color="#0898ED"/>
</linearGradient>
</defs>
</svg>
