<svg width="63" height="65" viewBox="0 0 63 65" fill="none" xmlns="http://www.w3.org/2000/svg">
<g filter="url(#filter0_d_725_487)">
<path d="M62.5073 11.418V27.899L56.3937 27.9067C56.3699 27.9067 56.3471 27.8968 56.3303 27.8791C56.3135 27.8615 56.3041 27.8376 56.3041 27.8126L56.3077 22.7648C56.3077 22.6849 56.2811 22.6733 56.2279 22.73L34.692 45.6557C34.6743 45.6745 34.6504 45.685 34.6254 45.685C34.6005 45.685 34.5765 45.6745 34.5589 45.6557L22.2552 32.5524C22.2513 32.5481 22.2466 32.5447 22.2414 32.5424C22.2362 32.5401 22.2306 32.5389 22.225 32.5389C22.2194 32.5389 22.2138 32.5401 22.2086 32.5424C22.2034 32.5447 22.1987 32.5481 22.1947 32.5524L4.92222 50.9445C4.91665 50.9504 4.91005 50.9551 4.90283 50.9582C4.8956 50.9614 4.88788 50.9631 4.88011 50.9631C4.87234 50.9631 4.86468 50.9614 4.85758 50.9582C4.85047 50.9551 4.84406 50.9504 4.83872 50.9445L0.595923 46.4277C0.590288 46.4218 0.585811 46.4148 0.582755 46.407C0.579699 46.3993 0.578125 46.391 0.578125 46.3826C0.578125 46.3742 0.579699 46.3658 0.582755 46.3581C0.585811 46.3504 0.590288 46.3433 0.595923 46.3375L22.202 23.3306C22.227 23.3031 22.252 23.3031 22.277 23.3306L34.5831 36.4339C34.6137 36.4666 34.644 36.4666 34.6738 36.4339L51.8786 18.1127C51.9568 18.0302 51.9407 17.989 51.8302 17.989L47.0646 17.9928C47.0521 17.9928 47.0401 17.9877 47.0312 17.9785C47.0224 17.9693 47.0174 17.9569 47.0174 17.9439V11.5494C47.0174 11.4626 47.0581 11.4193 47.1396 11.4193L62.5073 11.418Z" fill="url(#paint0_linear_725_487)"/>
</g>
<defs>
<filter id="filter0_d_725_487" x="-14.4219" y="0.417969" width="91.9297" height="69.5469" filterUnits="userSpaceOnUse" color-interpolation-filters="sRGB">
<feFlood flood-opacity="0" result="BackgroundImageFix"/>
<feColorMatrix in="SourceAlpha" type="matrix" values="0 0 0 0 0 0 0 0 0 0 0 0 0 0 0 0 0 0 127 0" result="hardAlpha"/>
<feOffset dy="4"/>
<feGaussianBlur stdDeviation="7.5"/>
<feComposite in2="hardAlpha" operator="out"/>
<feColorMatrix type="matrix" values="0 0 0 0 0 0 0 0 0 0 0 0 0 0 0 0 0 0 0.25 0"/>
<feBlend mode="normal" in2="BackgroundImageFix" result="effect1_dropShadow_725_487"/>
<feBlend mode="normal" in="SourceGraphic" in2="effect1_dropShadow_725_487" result="shape"/>
</filter>
<linearGradient id="paint0_linear_725_487" x1="0.547392" y1="48.4789" x2="64.2835" y2="15.2278" gradientUnits="userSpaceOnUse">
<stop stop-color="white"/>
<stop offset="1" stop-color="#E1DDDD"/>
</linearGradient>
</defs>
</svg>
