<?xml version="1.0" encoding="UTF-8" standalone="no"?>
<!DOCTYPE svg PUBLIC "-//W3C//DTD SVG 1.1//EN" "http://www.w3.org/Graphics/SVG/1.1/DTD/svg11.dtd">
<svg xmlns="http://www.w3.org/2000/svg" version="1.1" viewBox="0.00 0.00 512.00 512.00">
<path fill="#000000" d="
  M 0.00 255.93
  L 0.00 249.70
  Q 0.39 242.21 0.82 234.74
  C 7.09 125.55 84.41 33.90 187.77 2.78
  Q 194.31 0.82 198.04 1.13
  C 206.05 1.81 212.37 7.73 213.44 15.66
  C 214.27 21.87 212.01 25.71 207.90 30.94
  Q 183.95 61.40 174.42 99.19
  C 147.31 206.76 214.15 314.85 322.76 336.44
  C 380.47 347.91 437.79 332.85 482.69 296.17
  C 486.47 293.08 490.85 290.99 495.80 290.93
  C 504.50 290.82 512.16 297.12 511.69 306.22
  Q 511.53 309.51 510.48 313.73
  C 484.91 416.66 398.70 495.19 293.11 508.66
  C 138.17 528.42 3.97 411.78 0.00 255.93
  Z
  M 37.13 278.83
  C 51.17 397.79 159.43 485.71 279.26 475.50
  C 358.70 468.74 426.46 421.17 463.36 350.92
  A 0.37 0.37 0.0 0 0 462.87 350.41
  C 358.70 401.60 230.93 367.59 169.58 267.93
  C 129.61 203.00 124.06 121.77 156.90 52.31
  A 0.25 0.24 89.4 0 0 156.57 51.98
  C 72.92 96.43 26.00 184.47 37.13 278.83
  Z"
/>
</svg>
