<svg width="223" height="65" fill="none" xmlns="http://www.w3.org/2000/svg"><path d="M213.829 65H8.216C3.69 65 0 61.354 0 56.88V8.12C0 3.647 3.689 0 8.216 0H213.83c4.527 0 8.216 3.646 8.216 8.12v48.76c0 4.474-3.722 8.12-8.216 8.12Z" fill="url(#a)"/><path d="M75.42 19.69c0 1.064-.314 1.92-.945 2.543-.734.752-1.68 1.141-2.834 1.141-1.103 0-2.074-.389-2.835-1.141-.787-.778-1.181-1.712-1.181-2.854 0-1.141.394-2.075 1.181-2.827.788-.753 1.733-1.142 2.835-1.142.551 0 1.076.104 1.575.312.498.207.918.492 1.207.856l-.682.674c-.525-.597-1.208-.908-2.126-.908a2.89 2.89 0 0 0-2.1.856c-.604.57-.893 1.297-.893 2.205 0 .908.29 1.635.893 2.205.603.571 1.312.856 2.1.856.866 0 1.574-.285 2.152-.856.367-.363.604-.882.656-1.556h-2.808v-.908h3.727c.079.155.079.337.079.545Zm5.938-3.199h-3.517v2.413h3.176v.908h-3.176v2.412h3.517v.934h-4.514v-7.627h4.514v.96Zm10.165 6.691v-7.627h.998v7.627h-.998Zm5.424 0h-.998v-6.693h-2.152v-.934h5.302v.934h-2.152v6.693Zm12.203-.972c-.762.778-1.706 1.167-2.835 1.167s-2.074-.39-2.835-1.168c-.761-.778-1.128-1.712-1.128-2.827 0-1.116.367-2.076 1.128-2.828.761-.778 1.706-1.167 2.835-1.167s2.073.389 2.835 1.167c.761.778 1.154 1.712 1.154 2.828-.026 1.115-.393 2.05-1.154 2.827Zm-4.935-.65c.578.572 1.26.857 2.1.857a2.89 2.89 0 0 0 2.1-.856c.577-.57.866-1.297.866-2.205 0-.908-.289-1.635-.866-2.205-.578-.571-1.26-.856-2.1-.856-.84 0-1.522.285-2.1.856-.577.57-.866 1.297-.866 2.205 0 .908.289 1.634.866 2.205Zm7.457 1.622v-7.627h1.207l3.754 5.94h.052l-.052-1.478v-4.462h.997v7.627h-1.024l-3.937-6.226h-.052l.052 1.478v4.748h-.997Zm-26.12 0h-.997v-6.693h-2.153v-.934h5.302v.934h-2.152v6.693Z" fill="#252525" stroke="#252525" stroke-width=".199" stroke-miterlimit="10"/><path d="M105.971 35.977c-3.318 0-6.03 2.532-6.03 6.014 0 3.453 2.712 6.014 6.03 6.014s6.059-2.56 6.059-6.014c0-3.482-2.712-6.014-6.059-6.014Zm0 9.64c-1.818 0-3.405-1.496-3.405-3.626 0-2.158 1.558-3.626 3.405-3.626 1.846 0 3.404 1.468 3.404 3.626 0 2.13-1.586 3.626-3.404 3.626Zm-13.157-9.64c-3.318 0-6.03 2.532-6.03 6.014 0 3.453 2.712 6.014 6.03 6.014s6.03-2.56 6.03-6.014c0-3.482-2.712-6.014-6.03-6.014Zm0 9.64c-1.818 0-3.405-1.496-3.405-3.626 0-2.158 1.587-3.626 3.405-3.626 1.818 0 3.404 1.468 3.404 3.626-.028 2.13-1.587 3.626-3.404 3.626Zm-15.696-7.799v2.562h6.117c-.174 1.438-.664 2.474-1.385 3.194-.895.892-2.28 1.87-4.732 1.87-3.751 0-6.694-3.021-6.694-6.762 0-3.741 2.943-6.763 6.694-6.763 2.02 0 3.52.806 4.616 1.813l1.789-1.784c-1.53-1.468-3.549-2.561-6.405-2.561-5.165 0-9.493 4.172-9.493 9.324 0 5.15 4.328 9.323 9.493 9.323 2.798 0 4.876-.92 6.52-2.618 1.674-1.67 2.222-4.058 2.222-5.957a8.24 8.24 0 0 0-.144-1.583c0-.058-8.598-.058-8.598-.058Zm64.111 1.986c-.49-1.352-2.019-3.827-5.164-3.827-3.088 0-5.685 2.446-5.685 6.014 0 3.367 2.54 6.014 5.973 6.014 2.77 0 4.357-1.669 5.02-2.647l-2.048-1.353c-.693 1.008-1.616 1.67-2.972 1.67-1.327 0-2.308-.605-2.914-1.813l8.05-3.31c.029-.086-.26-.748-.26-.748Zm-8.194 1.986c-.058-2.303 1.789-3.511 3.145-3.511 1.039 0 1.933.518 2.25 1.266-.028.029-5.395 2.245-5.395 2.245Zm-6.55 5.841h2.655v-17.64h-2.655v17.64Zm-4.328-10.33h-.086c-.606-.691-1.731-1.324-3.174-1.324-3.001 0-5.771 2.647-5.771 6.014 0 3.367 2.77 5.986 5.771 5.986 1.443 0 2.568-.633 3.174-1.353h.086v.863c0 2.303-1.24 3.54-3.202 3.54-1.616 0-2.626-1.151-3.03-2.13l-2.308.95c.663 1.583 2.423 3.54 5.338 3.54 3.116 0 5.713-1.813 5.713-6.245V36.351h-2.511v.95Zm-3.029 8.316c-1.818 0-3.347-1.525-3.347-3.626 0-2.13 1.529-3.655 3.347-3.655 1.789 0 3.202 1.554 3.202 3.655 0 2.1-1.413 3.626-3.202 3.626Zm34.508-15.655h-6.319v17.64h2.626v-6.676h3.693c2.943 0 5.8-2.13 5.8-5.467 0-3.367-2.886-5.497-5.8-5.497Zm.058 8.518h-3.751v-6.043h3.751c1.962 0 3.087 1.64 3.087 3.022 0 1.352-1.125 3.021-3.087 3.021Zm16.331-2.532c-1.905 0-3.896.834-4.703 2.705l2.337.978c.49-.978 1.442-1.295 2.423-1.295 1.356 0 2.77.835 2.77 2.274v.172c-.49-.287-1.5-.69-2.77-.69-2.51 0-5.107 1.381-5.107 3.971 0 2.36 2.078 3.885 4.386 3.885 1.789 0 2.77-.806 3.376-1.727h.086v1.353h2.539V40.81c.029-3.108-2.308-4.863-5.337-4.863Zm-.318 9.669c-.865 0-2.077-.432-2.077-1.496 0-1.353 1.5-1.9 2.799-1.9 1.154 0 1.702.26 2.423.605-.231 1.64-1.616 2.79-3.145 2.79Zm14.975-9.295-3.03 7.655h-.086l-3.145-7.655h-2.857l4.703 10.676-2.683 5.957h2.77l7.271-16.633h-2.943Zm-23.804 11.31h2.655V29.99h-2.655v17.64Z" fill="#252525"/><path d="m36.101 34.039-18.32-17.87c-.17.34-.281.789-.281 1.337v33.102c0 .643.134 1.136.348 1.48L36.1 34.045v-.007Zm6.843-5.792-5.846 5.779v.01l5.847 5.808 7.235-4.052h.001c.958-.544 1.32-1.19 1.32-1.73 0-.542-.362-1.189-1.32-1.732l-7.237-4.083Zm-6.341 6.487L18.508 52.618c.512.247 1.234.22 2.137-.29L42.17 40.236l-5.566-5.502Zm5.564-6.9L20.615 15.743l-.001-.001c-.903-.51-1.626-.537-2.137-.29l18.095 17.885 5.595-5.503Z" fill="#252525" stroke="#DAD5DD"/><defs><linearGradient id="a" x1="0" y1="61.5" x2="222.195" y2="2.211" gradientUnits="userSpaceOnUse"><stop stop-color="#DEDEDE"/><stop offset=".521" stop-color="#fff"/><stop offset=".973" stop-color="#DEDEDE"/></linearGradient></defs></svg>