<svg width="250" height="74" fill="none" xmlns="http://www.w3.org/2000/svg"><path d="M240.749 73.184H9.251C4.153 73.184 0 69.079 0 64.04V9.144C0 4.106 4.153 0 9.25 0h231.5c5.097 0 9.25 4.106 9.25 9.144V64.04c0 5.038-4.191 9.144-9.251 9.144Z" fill="#000"/><path d="M85.422 23.162c0 1.285-.381 2.32-1.142 3.072-.889.91-2.03 1.38-3.426 1.38-1.333 0-2.507-.47-3.427-1.38-.951-.94-1.427-2.069-1.427-3.449s.476-2.508 1.427-3.417c.952-.91 2.094-1.38 3.427-1.38.666 0 1.3.126 1.903.377.603.25 1.11.595 1.46 1.034l-.826.815c-.634-.72-1.459-1.097-2.57-1.097-.983 0-1.839.345-2.537 1.035-.73.69-1.079 1.567-1.079 2.665 0 1.097.35 1.975 1.079 2.665.73.69 1.586 1.035 2.538 1.035 1.047 0 1.903-.345 2.601-1.035.444-.44.73-1.066.793-1.881h-3.394v-1.098h4.504c.096.188.096.408.096.659Zm7.175-3.862h-4.25v2.917h3.838v1.097h-3.839v2.916h4.251v1.129h-5.456V18.14h5.456v1.16Zm5.065 8.09h-1.205V19.3h-2.601v-1.128h6.407V19.3h-2.6v8.089Zm7.24 0v-9.218h1.206v9.218h-1.206Zm6.538 0h-1.206V19.3h-2.601v-1.128h6.408V19.3h-2.601v8.089Zm14.745-1.183c-.92.94-2.062 1.41-3.426 1.41-1.364 0-2.506-.47-3.426-1.41-.92-.94-1.364-2.07-1.364-3.418 0-1.348.444-2.508 1.364-3.417.92-.94 2.062-1.411 3.426-1.411 1.364 0 2.506.47 3.426 1.41.92.942 1.396 2.07 1.396 3.418-.032 1.349-.476 2.477-1.396 3.418Zm-5.964-.784c.698.69 1.523 1.035 2.538 1.035.983 0 1.84-.345 2.538-1.035.698-.69 1.047-1.568 1.047-2.665s-.349-1.975-1.047-2.665-1.523-1.035-2.538-1.035-1.84.345-2.538 1.035c-.698.69-1.047 1.568-1.047 2.665s.349 1.975 1.047 2.665Zm9.002 1.967v-9.218h1.459l4.536 7.18h.064l-.064-1.787v-5.393h1.206v9.218h-1.237l-4.759-7.525h-.063l.063 1.787v5.738h-1.205Z" fill="#fff" stroke="#fff" stroke-width=".199" stroke-miterlimit="10"/><path d="M114.665 43.276c-3.345 0-6.08 2.427-6.08 5.764 0 3.31 2.735 5.764 6.08 5.764 3.346 0 6.11-2.455 6.11-5.764 0-3.337-2.735-5.764-6.11-5.764Zm0 9.239c-1.833 0-3.433-1.434-3.433-3.475 0-2.068 1.571-3.475 3.433-3.475 1.862 0 3.433 1.407 3.433 3.475 0 2.04-1.6 3.475-3.433 3.475Zm-13.266-9.239c-3.346 0-6.08 2.427-6.08 5.764 0 3.31 2.734 5.764 6.08 5.764 3.345 0 6.08-2.455 6.08-5.764 0-3.337-2.735-5.764-6.08-5.764Zm0 9.239c-1.833 0-3.433-1.434-3.433-3.475 0-2.068 1.6-3.475 3.433-3.475 1.833 0 3.433 1.407 3.433 3.475-.029 2.04-1.6 3.475-3.433 3.475ZM85.572 45.04v2.455h6.168c-.175 1.379-.67 2.371-1.397 3.06-.902.856-2.298 1.793-4.771 1.793-3.782 0-6.75-2.895-6.75-6.48 0-3.586 2.968-6.481 6.75-6.481 2.036 0 3.55.772 4.655 1.737l1.803-1.71c-1.541-1.406-3.578-2.454-6.458-2.454-5.208 0-9.572 3.999-9.572 8.935 0 4.937 4.364 8.935 9.572 8.935 2.822 0 4.917-.882 6.575-2.51 1.687-1.599 2.24-3.888 2.24-5.708 0-.579-.058-1.103-.145-1.517 0-.055-8.67-.055-8.67-.055Zm64.646 1.903c-.495-1.296-2.037-3.668-5.208-3.668-3.113 0-5.732 2.344-5.732 5.764 0 3.227 2.561 5.764 6.023 5.764 2.793 0 4.393-1.6 5.062-2.537l-2.066-1.297c-.698.966-1.629 1.6-2.996 1.6-1.339 0-2.328-.58-2.939-1.737l8.117-3.172c.03-.083-.261-.717-.261-.717Zm-8.263 1.903c-.058-2.206 1.804-3.364 3.171-3.364 1.048 0 1.95.496 2.27 1.213-.03.028-5.441 2.151-5.441 2.151Zm-6.604 5.598h2.676V37.54h-2.676v16.905Zm-4.364-9.9h-.088c-.61-.662-1.745-1.269-3.2-1.269-3.026 0-5.819 2.537-5.819 5.764 0 3.227 2.793 5.736 5.819 5.736 1.455 0 2.59-.606 3.2-1.296h.088v.828c0 2.206-1.251 3.392-3.23 3.392-1.629 0-2.647-1.104-3.054-2.041l-2.328.91c.669 1.517 2.444 3.392 5.382 3.392 3.142 0 5.761-1.737 5.761-5.984V43.635h-2.531v.91Zm-3.055 7.97c-1.833 0-3.375-1.462-3.375-3.475 0-2.04 1.542-3.502 3.375-3.502 1.804 0 3.229 1.489 3.229 3.502s-1.425 3.475-3.229 3.475Zm34.796-15.002h-6.372v16.905h2.648V48.02h3.724c2.967 0 5.848-2.041 5.848-5.24 0-3.227-2.91-5.267-5.848-5.267Zm.058 8.163h-3.782v-5.792h3.782c1.978 0 3.113 1.572 3.113 2.896 0 1.296-1.135 2.896-3.113 2.896Zm16.467-2.427c-1.92 0-3.928.8-4.742 2.592l2.356.938c.495-.938 1.455-1.241 2.444-1.241 1.368 0 2.793.8 2.793 2.178v.166c-.494-.276-1.513-.662-2.793-.662-2.531 0-5.149 1.324-5.149 3.806 0 2.261 2.094 3.723 4.422 3.723 1.804 0 2.793-.773 3.404-1.655h.087v1.296h2.56v-6.48c.029-2.979-2.327-4.661-5.382-4.661Zm-.32 9.266c-.873 0-2.095-.414-2.095-1.434 0-1.296 1.513-1.82 2.822-1.82 1.164 0 1.717.248 2.444.579-.233 1.572-1.629 2.675-3.171 2.675Zm15.099-8.908-3.054 7.336h-.088l-3.171-7.336h-2.88l4.742 10.232-2.706 5.708h2.793L197 43.607h-2.968ZM170.03 54.445h2.677V37.54h-2.677v16.905Z" fill="#fff"/><path d="M22.932 13.845c-.406.457-.682 1.19-.682 2.131v36.929c0 .942.244 1.663.664 2.115l20.703-20.463v-.267L22.932 13.845Zm21.173 20.712 6.759 6.713a.5.5 0 0 1 .098-.023l8.198-4.591c1.125-.638 1.63-1.445 1.63-2.2 0-.753-.505-1.56-1.63-2.198l-8.265-4.663-.004-.003-.006-.003-6.78 6.7v.268Zm-.245.212L23.184 55.206c.696.556 1.758.608 3.027-.109l24.368-13.69-6.717-6.638Zm6.716-7.337-24.4-13.69h-.001c-1.27-.717-2.33-.665-3.027-.109l20.678 20.438 6.75-6.64Z" fill="#fff" stroke="#A6A6A6" stroke-width=".5"/></svg>