<?xml version="1.0" encoding="UTF-8" standalone="no"?>
<!DOCTYPE svg PUBLIC "-//W3C//DTD SVG 1.1//EN" "http://www.w3.org/Graphics/SVG/1.1/DTD/svg11.dtd">
<svg xmlns="http://www.w3.org/2000/svg" version="1.1" viewBox="0.00 0.00 512.00 512.00">
<path fill="#000000" d="
  M 255.31 0.00
  L 257.06 0.00
  Q 274.93 2.34 279.69 17.72
  Q 281.06 22.15 281.02 30.95
  Q 280.95 47.59 280.91 64.25
  C 280.88 75.81 274.41 85.09 263.59 88.82
  C 251.31 93.05 236.65 85.71 232.52 73.43
  Q 231.03 69.00 231.02 58.78
  Q 231.01 44.89 230.97 30.99
  Q 230.95 22.11 232.33 17.67
  Q 237.14 2.15 255.31 0.00
  Z"
/>
<path fill="#000000" d="
  M 110.62 75.38
  Q 127.98 92.22 138.76 103.49
  C 154.91 120.38 141.59 148.08 118.12 145.79
  Q 109.76 144.98 103.72 139.02
  Q 89.39 124.87 75.35 110.41
  C 51.98 86.34 86.65 52.10 110.62 75.38
  Z"
/>
<path fill="#000000" d="
  M 377.84 98.87
  Q 395.40 80.79 401.72 74.98
  Q 413.79 63.86 428.69 69.55
  C 442.20 74.71 448.09 91.56 441.40 104.19
  Q 439.45 107.85 432.23 115.13
  Q 423.40 124.01 414.53 132.84
  Q 406.02 141.31 401.56 143.48
  C 380.81 153.59 358.20 130.85 368.49 110.25
  Q 370.31 106.62 377.84 98.87
  Z"
/>
<circle fill="#000000" cx="256.00" cy="256.01" r="128.08"/>
<path fill="#000000" d="
  M 0.00 256.70
  L 0.00 255.18
  Q 2.15 237.14 17.75 232.30
  Q 22.09 230.95 30.43 230.98
  Q 47.21 231.04 64.00 231.06
  C 92.99 231.09 100.05 270.79 72.82 279.56
  Q 68.27 281.03 57.52 281.00
  Q 44.19 280.97 30.85 281.02
  Q 22.20 281.05 17.82 279.71
  Q 2.15 274.90 0.00 256.70
  Z"
/>
<path fill="#000000" d="
  M 512.00 255.31
  L 512.00 256.57
  Q 509.92 274.88 494.21 279.68
  Q 489.69 281.06 480.61 281.01
  Q 464.31 280.92 448.00 280.79
  Q 430.80 280.64 424.05 265.95
  C 417.97 252.74 425.56 236.87 439.07 232.42
  Q 443.35 231.00 452.70 231.02
  Q 465.38 231.04 478.05 230.96
  Q 489.51 230.89 494.28 232.33
  Q 509.71 236.95 512.00 255.31
  Z"
/>
<path fill="#000000" d="
  M 83.80 442.66
  C 70.27 438.10 63.86 420.55 70.25 408.26
  Q 72.19 404.54 80.17 396.47
  Q 98.06 378.38 103.72 372.97
  C 120.59 356.88 147.97 370.78 145.77 393.88
  Q 144.98 402.27 139.02 408.28
  Q 124.92 422.53 110.55 436.52
  Q 99.00 447.78 83.80 442.66
  Z"
/>
<path fill="#000000" d="
  M 397.98 433.23
  Q 388.80 424.23 374.22 409.53
  C 353.53 388.68 376.82 355.76 402.28 368.94
  Q 406.58 371.17 413.73 378.32
  Q 425.38 390.00 437.04 401.72
  C 452.46 417.24 441.58 443.48 419.85 444.21
  C 410.32 444.53 405.14 440.23 397.98 433.23
  Z"
/>
<path fill="#000000" d="
  M 256.70 512.00
  L 255.44 512.00
  Q 237.12 509.94 232.29 494.16
  Q 230.93 489.75 230.98 481.18
  Q 231.06 464.47 231.13 447.76
  C 231.26 418.79 270.92 412.11 279.60 439.21
  Q 281.03 443.65 280.99 453.96
  Q 280.96 466.03 281.03 478.11
  Q 281.10 489.48 279.68 494.23
  Q 275.06 509.72 256.70 512.00
  Z"
/>
</svg>
