<?xml version="1.0" encoding="UTF-8" standalone="no"?>
<!DOCTYPE svg PUBLIC "-//W3C//DTD SVG 1.1//EN" "http://www.w3.org/Graphics/SVG/1.1/DTD/svg11.dtd">
<svg xmlns="http://www.w3.org/2000/svg" version="1.1" viewBox="0.00 0.00 512.00 512.00">
<path fill="#000000" d="
  M 255.07 0.00
  L 257.05 0.00
  C 264.39 1.42 265.98 6.14 265.99 13.30
  Q 266.01 33.68 266.00 54.04
  Q 266.00 59.02 265.03 61.31
  C 260.65 71.61 245.97 67.68 245.99 56.51
  Q 246.02 33.62 245.98 10.75
  Q 245.97 1.81 255.07 0.00
  Z"
/>
<rect fill="#000000" x="-9.99" y="-33.55" transform="translate(144.81,63.41) rotate(-30.1)" width="19.98" height="67.10" rx="9.75"/>
<rect fill="#000000" x="-9.98" y="-33.56" transform="translate(367.20,63.40) rotate(30.1)" width="19.96" height="67.12" rx="9.75"/>
<path fill="#000000" d="
  M 415.17 255.99
  A 159.17 159.17 0.0 0 1 256.00 415.16
  A 159.17 159.17 0.0 0 1 96.83 255.99
  A 159.17 159.17 0.0 0 1 256.00 96.82
  A 159.17 159.17 0.0 0 1 415.17 255.99
  Z
  M 395.17 255.99
  A 139.17 139.17 0.0 0 0 256.00 116.82
  A 139.17 139.17 0.0 0 0 116.83 255.99
  A 139.17 139.17 0.0 0 0 256.00 395.16
  A 139.17 139.17 0.0 0 0 395.17 255.99
  Z"
/>
<rect fill="#000000" x="-33.56" y="-9.98" transform="translate(63.40,144.79) rotate(30.0)" width="67.12" height="19.96" rx="9.75"/>
<rect fill="#000000" x="-33.55" y="-9.98" transform="translate(448.59,144.82) rotate(-30.1)" width="67.10" height="19.96" rx="9.75"/>
<path fill="#000000" d="
  M 0.00 256.93
  L 0.00 254.94
  Q 1.90 245.97 11.00 245.98
  Q 32.62 246.01 54.23 246.00
  Q 58.96 245.99 61.14 246.88
  C 69.43 250.23 69.15 262.27 60.73 265.29
  Q 58.72 266.01 54.19 266.00
  Q 32.47 265.98 10.75 266.02
  Q 1.81 266.03 0.00 256.93
  Z"
/>
<path fill="#000000" d="
  M 512.00 255.31
  L 512.00 257.05
  Q 510.03 266.01 500.51 266.01
  Q 479.29 265.99 458.09 266.00
  Q 452.90 266.01 450.56 264.99
  C 442.72 261.56 442.92 250.34 450.75 246.89
  Q 452.72 246.02 456.50 246.02
  Q 478.75 245.99 501.00 245.99
  Q 510.38 245.99 512.00 255.31
  Z"
/>
<rect fill="#000000" x="-33.54" y="-9.99" transform="translate(63.42,367.20) rotate(-30.1)" width="67.08" height="19.98" rx="9.75"/>
<rect fill="#000000" x="-33.54" y="-9.99" transform="translate(448.58,367.18) rotate(30.1)" width="67.08" height="19.98" rx="9.75"/>
<rect fill="#000000" x="-9.98" y="-33.55" transform="translate(144.81,448.59) rotate(30.1)" width="19.96" height="67.10" rx="9.74"/>
<rect fill="#000000" x="-9.98" y="-33.55" transform="translate(367.19,448.58) rotate(-30.0)" width="19.96" height="67.10" rx="9.75"/>
<path fill="#000000" d="
  M 256.94 512.00
  L 254.95 512.00
  Q 245.99 510.10 245.99 501.26
  Q 245.99 479.12 246.02 457.01
  Q 246.02 452.55 247.11 450.31
  C 250.82 442.65 262.07 443.05 265.19 451.00
  Q 265.98 453.00 265.98 457.23
  Q 266.01 478.99 266.03 500.74
  Q 266.03 510.17 256.94 512.00
  Z"
/>
</svg>
